<svg xmlns="http://www.w3.org/2000/svg" version="1.1" id="Layer_1" x="0" y="0" xml:space="preserve" viewBox="151.99 184 576.02 272"><style>.st0{fill:none}</style><path class="st0" d="M671.99 320c0-45.09-37.63-81.78-83.89-81.78-12.26 0-33.8 6.07-66.78 34.97-17.73 15.54-33.17 32.87-43.85 45.55 17.99 19.05 37.47 39.23 46.31 46.89 3.63 3.14 27.63 22.81 56.09 35.14 3.34.74 6.06 1 8.16 1 46.31-.27 83.96-36.93 83.96-81.77z"/><path class="st0" d="M522.89 366.54c27.22 23.59 45.72 31.74 56.98 34.24 3.34.74 6.06 1 8.16 1 46.3-.28 83.95-36.94 83.95-81.78 0-45.09-37.63-81.78-83.89-81.78-12.26 0-33.8 6.07-66.78 34.97-17.73 15.54-33.17 32.87-43.85 45.55-.25.31 26.84 31.69 45.43 47.8z"/><linearGradient id="SVGID_1_" gradientUnits="userSpaceOnUse" x1="515.274" y1="201.935" x2="705.485" y2="398.903"><stop offset=".21" stop-color="#f15a24"/><stop offset=".684" stop-color="#fbb03b"/></linearGradient><path d="M588.1 184c-32.16 0-67.28 16.49-104.38 49-17.57 15.4-32.8 31.88-44.23 45.1.02.02.04.04.06.07.03-.04.05-.06.05-.06s18.03 19.63 37.87 40.64c10.68-12.69 26.11-30.01 43.85-45.55 32.98-28.91 54.52-34.97 66.78-34.97 46.26 0 83.89 36.69 83.89 81.78 0 44.84-37.65 81.5-83.95 81.78-2.11 0-4.82-.26-8.16-1 13.49 5.84 27.99 10.04 41.8 10.04 84.79 0 101.36-55.33 102.49-59.25 2.51-10.14 3.84-20.7 3.84-31.56C728 245.01 665.24 184 588.1 184z" fill="url(#SVGID_1_)"/><path class="st0" d="M208.01 320c0 45.09 37.63 81.78 83.89 81.78 12.26 0 33.8-6.07 66.78-34.97 17.73-15.54 33.17-32.87 43.85-45.55-17.99-19.05-37.47-39.23-46.31-46.89-3.63-3.14-27.63-22.81-56.09-35.14-3.34-.74-6.06-1-8.16-1-46.31.27-83.96 36.93-83.96 81.77z"/><path class="st0" d="M357.11 273.46c-27.22-23.59-45.72-31.74-56.98-34.24-3.34-.74-6.06-1-8.16-1-46.3.28-83.95 36.94-83.95 81.78 0 45.09 37.63 81.78 83.89 81.78 12.26 0 33.8-6.07 66.78-34.97 17.73-15.54 33.17-32.87 43.85-45.55.26-.3.52-.62.78-.92-11.2-12.83-27.62-30.77-46.21-46.88z"/><linearGradient id="SVGID_2_" gradientUnits="userSpaceOnUse" x1="-877.303" y1="-1122.682" x2="-687.093" y2="-925.713" gradientTransform="rotate(180 -256.289 -342.308)"><stop offset=".21" stop-color="#ed1e79"/><stop offset=".893" stop-color="#522785"/></linearGradient><path d="M291.9 456c32.16 0 67.28-16.49 104.38-49 17.57-15.4 32.8-31.88 44.23-45.1a.435.435 0 01-.06-.07c-.03.04-.05.06-.05.06s-18.03-19.63-37.87-40.64c-10.68 12.69-26.11 30.01-43.85 45.55-32.98 28.91-54.52 34.97-66.78 34.97-46.26 0-83.89-36.69-83.89-81.78 0-44.84 37.65-81.5 83.95-81.78 2.11 0 4.82.26 8.16 1-13.49-5.84-27.99-10.04-41.8-10.04-84.79 0-101.36 55.33-102.49 59.25-2.51 10.14-3.84 20.7-3.84 31.56C152 394.99 214.76 456 291.9 456z" fill="url(#SVGID_2_)"/><path d="M621.52 409.45c-43.41-1.07-88.53-35.3-97.74-43.81-23.78-21.99-78.66-81.53-82.97-86.2C400.58 234.4 346.07 184 291.9 184h-.14c-65.85.33-121.19 44.92-135.91 104.44 1.13-3.92 22.76-60.3 102.42-58.34 43.41 1.07 88.75 35.76 97.95 44.27 23.78 21.99 78.68 81.54 82.97 86.21C479.42 405.61 533.93 456 588.1 456h.14c65.85-.33 121.19-44.92 135.91-104.44-1.12 3.92-22.97 59.85-102.63 57.89z" fill="#29abe2"/></svg>